<mxfile modified="2020-08-26T12:10:06.386Z" host="1dd95f0b-3227-46c4-9d90-2faceae5d3d3" agent="5.0 (Windows NT 10.0; Win64; x64) AppleWebKit/537.36 (KHTML, like Gecko) Code/1.48.2 Chrome/78.0.3904.130 Electron/7.3.2 Safari/537.36" etag="MVZ8mV76wjBBDWtVMF3u" version="13.1.3">
    <diagram id="Ht1M8jgEwFfnCIfOTk4-" name="Page-1">
        <mxGraphModel dx="2369" dy="816" grid="1" gridSize="10" guides="1" tooltips="1" connect="1" arrows="1" fold="1" page="1" pageScale="1" pageWidth="1169" pageHeight="827" math="0" shadow="0">
            <root>
                <mxCell id="0"/>
                <mxCell id="1" parent="0"/>
                <mxCell id="xcDCqJ_c8EcHFE-JHSQi-15" value="" style="group" parent="1" vertex="1" connectable="0">
                    <mxGeometry x="-110" y="234" width="130" height="180" as="geometry"/>
                </mxCell>
                <mxCell id="xcDCqJ_c8EcHFE-JHSQi-3" value="Availability Zone us-east-1a" style="rounded=1;arcSize=10;dashed=1;fillColor=none;gradientColor=none;dashPattern=1 1;strokeWidth=2;verticalAlign=top;fontSize=15;fontStyle=1;labelPosition=center;verticalLabelPosition=bottom;align=center;" parent="xcDCqJ_c8EcHFE-JHSQi-15" vertex="1">
                    <mxGeometry width="130" height="180" as="geometry"/>
                </mxCell>
                <mxCell id="xcDCqJ_c8EcHFE-JHSQi-2" value="" style="outlineConnect=0;dashed=0;verticalLabelPosition=bottom;verticalAlign=top;align=center;html=1;shape=mxgraph.aws3.corporate_data_center;fillColor=#7D7C7C;gradientColor=none;" parent="xcDCqJ_c8EcHFE-JHSQi-15" vertex="1">
                    <mxGeometry x="11.30434782608694" y="20" width="50.86956521739131" height="146.66666666666663" as="geometry"/>
                </mxCell>
                <mxCell id="xcDCqJ_c8EcHFE-JHSQi-4" value="" style="outlineConnect=0;dashed=0;verticalLabelPosition=bottom;verticalAlign=top;align=center;html=1;shape=mxgraph.aws3.corporate_data_center;fillColor=#7D7C7C;gradientColor=none;" parent="xcDCqJ_c8EcHFE-JHSQi-15" vertex="1">
                    <mxGeometry x="70.6521739130435" y="20" width="50.86956521739131" height="146.66666666666663" as="geometry"/>
                </mxCell>
                <mxCell id="xcDCqJ_c8EcHFE-JHSQi-16" value="" style="group" parent="1" vertex="1" connectable="0">
                    <mxGeometry x="130" y="234" width="130" height="180" as="geometry"/>
                </mxCell>
                <mxCell id="xcDCqJ_c8EcHFE-JHSQi-17" value="Availability Zone us-east-1b" style="rounded=1;arcSize=10;dashed=1;fillColor=none;gradientColor=none;dashPattern=1 1;strokeWidth=2;verticalAlign=top;fontSize=15;fontStyle=1;labelPosition=center;verticalLabelPosition=bottom;align=center;" parent="xcDCqJ_c8EcHFE-JHSQi-16" vertex="1">
                    <mxGeometry width="130" height="180" as="geometry"/>
                </mxCell>
                <mxCell id="xcDCqJ_c8EcHFE-JHSQi-18" value="" style="outlineConnect=0;dashed=0;verticalLabelPosition=bottom;verticalAlign=top;align=center;html=1;shape=mxgraph.aws3.corporate_data_center;fillColor=#7D7C7C;gradientColor=none;" parent="xcDCqJ_c8EcHFE-JHSQi-16" vertex="1">
                    <mxGeometry x="11.30434782608694" y="20" width="50.86956521739131" height="146.66666666666663" as="geometry"/>
                </mxCell>
                <mxCell id="xcDCqJ_c8EcHFE-JHSQi-19" value="" style="outlineConnect=0;dashed=0;verticalLabelPosition=bottom;verticalAlign=top;align=center;html=1;shape=mxgraph.aws3.corporate_data_center;fillColor=#7D7C7C;gradientColor=none;" parent="xcDCqJ_c8EcHFE-JHSQi-16" vertex="1">
                    <mxGeometry x="70.6521739130435" y="20" width="50.86956521739131" height="146.66666666666663" as="geometry"/>
                </mxCell>
                <mxCell id="xcDCqJ_c8EcHFE-JHSQi-24" value="" style="group" parent="1" vertex="1" connectable="0">
                    <mxGeometry x="-110" y="490" width="130" height="180" as="geometry"/>
                </mxCell>
                <mxCell id="xcDCqJ_c8EcHFE-JHSQi-25" value="Availability Zone us-east-1d" style="rounded=1;arcSize=10;dashed=1;fillColor=none;gradientColor=none;dashPattern=1 1;strokeWidth=2;verticalAlign=top;fontSize=15;fontStyle=1;labelPosition=center;verticalLabelPosition=bottom;align=center;" parent="xcDCqJ_c8EcHFE-JHSQi-24" vertex="1">
                    <mxGeometry width="130" height="180" as="geometry"/>
                </mxCell>
                <mxCell id="xcDCqJ_c8EcHFE-JHSQi-26" value="" style="outlineConnect=0;dashed=0;verticalLabelPosition=bottom;verticalAlign=top;align=center;html=1;shape=mxgraph.aws3.corporate_data_center;fillColor=#7D7C7C;gradientColor=none;" parent="xcDCqJ_c8EcHFE-JHSQi-24" vertex="1">
                    <mxGeometry x="11.30434782608694" y="20" width="50.86956521739131" height="146.66666666666663" as="geometry"/>
                </mxCell>
                <mxCell id="xcDCqJ_c8EcHFE-JHSQi-27" value="" style="outlineConnect=0;dashed=0;verticalLabelPosition=bottom;verticalAlign=top;align=center;html=1;shape=mxgraph.aws3.corporate_data_center;fillColor=#7D7C7C;gradientColor=none;" parent="xcDCqJ_c8EcHFE-JHSQi-24" vertex="1">
                    <mxGeometry x="70.6521739130435" y="20" width="50.86956521739131" height="146.66666666666663" as="geometry"/>
                </mxCell>
                <mxCell id="xcDCqJ_c8EcHFE-JHSQi-28" value="" style="group" parent="1" vertex="1" connectable="0">
                    <mxGeometry x="130" y="490" width="650" height="340" as="geometry"/>
                </mxCell>
                <mxCell id="xcDCqJ_c8EcHFE-JHSQi-29" value="Availability Zone us-east-1e" style="rounded=1;arcSize=10;dashed=1;fillColor=none;gradientColor=none;dashPattern=1 1;strokeWidth=2;verticalAlign=top;fontSize=15;fontStyle=1;labelPosition=center;verticalLabelPosition=bottom;align=center;" parent="xcDCqJ_c8EcHFE-JHSQi-28" vertex="1">
                    <mxGeometry width="130" height="180" as="geometry"/>
                </mxCell>
                <mxCell id="xcDCqJ_c8EcHFE-JHSQi-30" value="" style="outlineConnect=0;dashed=0;verticalLabelPosition=bottom;verticalAlign=top;align=center;html=1;shape=mxgraph.aws3.corporate_data_center;fillColor=#7D7C7C;gradientColor=none;" parent="xcDCqJ_c8EcHFE-JHSQi-28" vertex="1">
                    <mxGeometry x="11.30434782608694" y="20" width="50.86956521739131" height="146.66666666666663" as="geometry"/>
                </mxCell>
                <mxCell id="xcDCqJ_c8EcHFE-JHSQi-31" value="" style="outlineConnect=0;dashed=0;verticalLabelPosition=bottom;verticalAlign=top;align=center;html=1;shape=mxgraph.aws3.corporate_data_center;fillColor=#7D7C7C;gradientColor=none;" parent="xcDCqJ_c8EcHFE-JHSQi-28" vertex="1">
                    <mxGeometry x="70.6521739130435" y="20" width="50.86956521739131" height="146.66666666666663" as="geometry"/>
                </mxCell>
                <mxCell id="xcDCqJ_c8EcHFE-JHSQi-9" value="Region: us-east-1 (N. Virginia)" style="rounded=1;arcSize=10;dashed=1;fillColor=none;gradientColor=none;dashPattern=1 1;strokeWidth=2;verticalAlign=top;fontSize=20;fontStyle=1" parent="xcDCqJ_c8EcHFE-JHSQi-28" vertex="1">
                    <mxGeometry x="-310" y="-330" width="730" height="610" as="geometry"/>
                </mxCell>
                <mxCell id="xcDCqJ_c8EcHFE-JHSQi-32" value="" style="group" parent="1" vertex="1" connectable="0">
                    <mxGeometry x="370" y="490" width="130" height="180" as="geometry"/>
                </mxCell>
                <mxCell id="xcDCqJ_c8EcHFE-JHSQi-33" value="Availability Zone us-east-1f" style="rounded=1;arcSize=10;dashed=1;fillColor=none;gradientColor=none;dashPattern=1 1;strokeWidth=2;verticalAlign=top;fontSize=15;fontStyle=1;labelPosition=center;verticalLabelPosition=bottom;align=center;" parent="xcDCqJ_c8EcHFE-JHSQi-32" vertex="1">
                    <mxGeometry width="130" height="180" as="geometry"/>
                </mxCell>
                <mxCell id="xcDCqJ_c8EcHFE-JHSQi-34" value="" style="outlineConnect=0;dashed=0;verticalLabelPosition=bottom;verticalAlign=top;align=center;html=1;shape=mxgraph.aws3.corporate_data_center;fillColor=#7D7C7C;gradientColor=none;" parent="xcDCqJ_c8EcHFE-JHSQi-32" vertex="1">
                    <mxGeometry x="11.30434782608694" y="20" width="50.86956521739131" height="146.66666666666663" as="geometry"/>
                </mxCell>
                <mxCell id="xcDCqJ_c8EcHFE-JHSQi-35" value="" style="outlineConnect=0;dashed=0;verticalLabelPosition=bottom;verticalAlign=top;align=center;html=1;shape=mxgraph.aws3.corporate_data_center;fillColor=#7D7C7C;gradientColor=none;" parent="xcDCqJ_c8EcHFE-JHSQi-32" vertex="1">
                    <mxGeometry x="70.6521739130435" y="20" width="50.86956521739131" height="146.66666666666663" as="geometry"/>
                </mxCell>
                <mxCell id="xcDCqJ_c8EcHFE-JHSQi-37" value="" style="group" parent="1" vertex="1" connectable="0">
                    <mxGeometry x="370" y="234" width="130" height="180" as="geometry"/>
                </mxCell>
                <mxCell id="xcDCqJ_c8EcHFE-JHSQi-20" value="" style="group" parent="xcDCqJ_c8EcHFE-JHSQi-37" vertex="1" connectable="0">
                    <mxGeometry width="130" height="180" as="geometry"/>
                </mxCell>
                <mxCell id="xcDCqJ_c8EcHFE-JHSQi-22" value="" style="outlineConnect=0;dashed=0;verticalLabelPosition=bottom;verticalAlign=top;align=center;html=1;shape=mxgraph.aws3.corporate_data_center;fillColor=#7D7C7C;gradientColor=none;" parent="xcDCqJ_c8EcHFE-JHSQi-20" vertex="1">
                    <mxGeometry x="11.30434782608694" y="20" width="50.86956521739131" height="146.66666666666663" as="geometry"/>
                </mxCell>
                <mxCell id="xcDCqJ_c8EcHFE-JHSQi-23" value="" style="outlineConnect=0;dashed=0;verticalLabelPosition=bottom;verticalAlign=top;align=center;html=1;shape=mxgraph.aws3.corporate_data_center;fillColor=#7D7C7C;gradientColor=none;" parent="xcDCqJ_c8EcHFE-JHSQi-20" vertex="1">
                    <mxGeometry x="70.6521739130435" y="20" width="50.86956521739131" height="146.66666666666663" as="geometry"/>
                </mxCell>
                <mxCell id="xcDCqJ_c8EcHFE-JHSQi-21" value="Availability Zone us-east-1c" style="rounded=1;arcSize=10;dashed=1;fillColor=none;gradientColor=none;dashPattern=1 1;strokeWidth=2;verticalAlign=top;fontSize=15;fontStyle=1;labelPosition=center;verticalLabelPosition=bottom;align=center;" parent="xcDCqJ_c8EcHFE-JHSQi-37" vertex="1">
                    <mxGeometry width="130" height="180" as="geometry"/>
                </mxCell>
                <mxCell id="xcDCqJ_c8EcHFE-JHSQi-38" value="Centro de datos" style="outlineConnect=0;dashed=0;verticalLabelPosition=bottom;verticalAlign=top;align=center;html=1;shape=mxgraph.aws3.corporate_data_center;fillColor=#7D7C7C;gradientColor=none;fontSize=10;" parent="1" vertex="1">
                    <mxGeometry x="620" y="380" width="46.5" height="63" as="geometry"/>
                </mxCell>
                <mxCell id="xcDCqJ_c8EcHFE-JHSQi-39" value="" style="image;html=1;image=img/lib/clip_art/finance/Stock_Down_128x128.png;fontSize=10;align=center;" parent="1" vertex="1">
                    <mxGeometry x="370" y="520" width="130" height="130" as="geometry"/>
                </mxCell>
                <mxCell id="xcDCqJ_c8EcHFE-JHSQi-40" value="" style="html=1;outlineConnect=0;fillColor=#CCCCCC;strokeColor=#6881B3;gradientColor=none;gradientDirection=north;strokeWidth=2;shape=mxgraph.networks.comm_link_edge;html=1;fontSize=10;entryX=0.994;entryY=0.439;entryDx=0;entryDy=0;entryPerimeter=0;exitX=-0.038;exitY=0.452;exitDx=0;exitDy=0;exitPerimeter=0;" parent="1" source="xcDCqJ_c8EcHFE-JHSQi-17" target="xcDCqJ_c8EcHFE-JHSQi-3" edge="1">
                    <mxGeometry width="100" height="100" relative="1" as="geometry">
                        <mxPoint x="-160" y="520" as="sourcePoint"/>
                        <mxPoint x="-60" y="420" as="targetPoint"/>
                        <Array as="points">
                            <mxPoint x="130" y="405"/>
                        </Array>
                    </mxGeometry>
                </mxCell>
                <mxCell id="xcDCqJ_c8EcHFE-JHSQi-41" value="" style="html=1;outlineConnect=0;fillColor=#CCCCCC;strokeColor=#6881B3;gradientColor=none;gradientDirection=north;strokeWidth=2;shape=mxgraph.networks.comm_link_edge;html=1;fontSize=10;entryX=0.5;entryY=1;entryDx=0;entryDy=0;exitX=0.5;exitY=0;exitDx=0;exitDy=0;" parent="1" source="xcDCqJ_c8EcHFE-JHSQi-25" target="xcDCqJ_c8EcHFE-JHSQi-3" edge="1">
                    <mxGeometry width="100" height="100" relative="1" as="geometry">
                        <mxPoint x="-174.16000000000008" y="422.3399999999999" as="sourcePoint"/>
                        <mxPoint x="-279.9999999999998" y="420" as="targetPoint"/>
                        <Array as="points">
                            <mxPoint x="-169.22000000000003" y="511.98"/>
                        </Array>
                    </mxGeometry>
                </mxCell>
                <mxCell id="xcDCqJ_c8EcHFE-JHSQi-42" value="" style="html=1;outlineConnect=0;fillColor=#CCCCCC;strokeColor=#6881B3;gradientColor=none;gradientDirection=north;strokeWidth=2;shape=mxgraph.networks.comm_link_edge;html=1;fontSize=10;entryX=1;entryY=0.5;entryDx=0;entryDy=0;exitX=0;exitY=0.5;exitDx=0;exitDy=0;" parent="1" source="xcDCqJ_c8EcHFE-JHSQi-29" target="xcDCqJ_c8EcHFE-JHSQi-25" edge="1">
                    <mxGeometry width="100" height="100" relative="1" as="geometry">
                        <mxPoint x="235.84000000000015" y="122.33999999999992" as="sourcePoint"/>
                        <mxPoint x="130" y="120" as="targetPoint"/>
                        <Array as="points">
                            <mxPoint x="240.77999999999997" y="211.98000000000002"/>
                        </Array>
                    </mxGeometry>
                </mxCell>
                <mxCell id="xcDCqJ_c8EcHFE-JHSQi-43" value="" style="html=1;outlineConnect=0;fillColor=#CCCCCC;strokeColor=#6881B3;gradientColor=none;gradientDirection=north;strokeWidth=2;shape=mxgraph.networks.comm_link_edge;html=1;fontSize=10;entryX=1;entryY=0.5;entryDx=0;entryDy=0;exitX=0;exitY=0.5;exitDx=0;exitDy=0;" parent="1" source="xcDCqJ_c8EcHFE-JHSQi-33" target="xcDCqJ_c8EcHFE-JHSQi-29" edge="1">
                    <mxGeometry width="100" height="100" relative="1" as="geometry">
                        <mxPoint x="175.84000000000015" y="42.33999999999992" as="sourcePoint"/>
                        <mxPoint x="70" y="40" as="targetPoint"/>
                        <Array as="points">
                            <mxPoint x="180.77999999999997" y="131.98000000000002"/>
                        </Array>
                    </mxGeometry>
                </mxCell>
                <mxCell id="xcDCqJ_c8EcHFE-JHSQi-44" value="" style="html=1;outlineConnect=0;fillColor=#CCCCCC;strokeColor=#6881B3;gradientColor=none;gradientDirection=north;strokeWidth=2;shape=mxgraph.networks.comm_link_edge;html=1;fontSize=10;entryX=1;entryY=0.5;entryDx=0;entryDy=0;exitX=0;exitY=0.5;exitDx=0;exitDy=0;" parent="1" source="xcDCqJ_c8EcHFE-JHSQi-21" target="xcDCqJ_c8EcHFE-JHSQi-17" edge="1">
                    <mxGeometry width="100" height="100" relative="1" as="geometry">
                        <mxPoint x="375.84000000000015" y="92.33999999999992" as="sourcePoint"/>
                        <mxPoint x="270" y="90" as="targetPoint"/>
                        <Array as="points">
                            <mxPoint x="380.78" y="181.98000000000002"/>
                        </Array>
                    </mxGeometry>
                </mxCell>
                <mxCell id="xcDCqJ_c8EcHFE-JHSQi-45" value="" style="html=1;outlineConnect=0;fillColor=#CCCCCC;strokeColor=#6881B3;gradientColor=none;gradientDirection=north;strokeWidth=2;shape=mxgraph.networks.comm_link_edge;html=1;fontSize=10;entryX=1;entryY=0.5;entryDx=0;entryDy=0;exitX=0;exitY=0;exitDx=0;exitDy=0;" parent="1" source="xcDCqJ_c8EcHFE-JHSQi-29" target="xcDCqJ_c8EcHFE-JHSQi-3" edge="1">
                    <mxGeometry width="100" height="100" relative="1" as="geometry">
                        <mxPoint x="145.05999999999995" y="335.3599999999999" as="sourcePoint"/>
                        <mxPoint x="39.220000000000255" y="333.02" as="targetPoint"/>
                        <Array as="points">
                            <mxPoint x="150" y="425"/>
                        </Array>
                    </mxGeometry>
                </mxCell>
                <mxCell id="xcDCqJ_c8EcHFE-JHSQi-46" value="" style="html=1;outlineConnect=0;fillColor=#CCCCCC;strokeColor=#6881B3;gradientColor=none;gradientDirection=north;strokeWidth=2;shape=mxgraph.networks.comm_link_edge;html=1;fontSize=10;entryX=1;entryY=0;entryDx=0;entryDy=0;" parent="1" source="xcDCqJ_c8EcHFE-JHSQi-21" target="xcDCqJ_c8EcHFE-JHSQi-29" edge="1">
                    <mxGeometry width="100" height="100" relative="1" as="geometry">
                        <mxPoint x="335.8399999999999" y="422.3399999999999" as="sourcePoint"/>
                        <mxPoint x="230.00000000000026" y="420" as="targetPoint"/>
                        <Array as="points">
                            <mxPoint x="340.78" y="511.98"/>
                        </Array>
                    </mxGeometry>
                </mxCell>
                <mxCell id="xcDCqJ_c8EcHFE-JHSQi-47" value="" style="html=1;outlineConnect=0;fillColor=#CCCCCC;strokeColor=#6881B3;gradientColor=none;gradientDirection=north;strokeWidth=2;shape=mxgraph.networks.comm_link_edge;html=1;fontSize=10;entryX=0.5;entryY=1;entryDx=0;entryDy=0;exitX=0.5;exitY=0;exitDx=0;exitDy=0;" parent="1" source="xcDCqJ_c8EcHFE-JHSQi-33" target="xcDCqJ_c8EcHFE-JHSQi-21" edge="1">
                    <mxGeometry width="100" height="100" relative="1" as="geometry">
                        <mxPoint x="165.05999999999995" y="355.3599999999999" as="sourcePoint"/>
                        <mxPoint x="59.220000000000255" y="353.02" as="targetPoint"/>
                        <Array as="points">
                            <mxPoint x="170" y="445"/>
                        </Array>
                    </mxGeometry>
                </mxCell>
                <mxCell id="xcDCqJ_c8EcHFE-JHSQi-48" value="Conexiones de red de baja latencia" style="html=1;outlineConnect=0;fillColor=#CCCCCC;strokeColor=#6881B3;gradientColor=none;gradientDirection=north;strokeWidth=2;shape=mxgraph.networks.comm_link_edge;html=1;fontSize=10;entryX=0.994;entryY=0.439;entryDx=0;entryDy=0;entryPerimeter=0;exitX=-0.038;exitY=0.452;exitDx=0;exitDy=0;exitPerimeter=0;" parent="1" edge="1">
                    <mxGeometry width="100" height="100" relative="1" as="geometry">
                        <mxPoint x="693.6999999999999" y="503.3399999999999" as="sourcePoint"/>
                        <mxPoint x="587.8600000000002" y="501" as="targetPoint"/>
                        <Array as="points">
                            <mxPoint x="630" y="521"/>
                        </Array>
                    </mxGeometry>
                </mxCell>
            </root>
        </mxGraphModel>
    </diagram>
</mxfile>